<svg height="512pt" viewBox="0 0 512 512" width="512pt" xmlns="http://www.w3.org/2000/svg"><path d="m512 256c0 141.386719-114.613281 256-256 256s-256-114.613281-256-256 114.613281-256 256-256 256 114.613281 256 256zm0 0" fill="#49bbee"/><path d="m512 256c0-6.496094-.246094-12.9375-.722656-19.3125l-94.332032-94.335938c-14.996093 13.382813-28.398437 17.726563-36.070312 19.121094l-18.089844-18.230468c-13.121094-14.183594-31.882812-23.0625-52.726562-23.0625-39.679688 0-71.847656 32.164062-71.847656 71.84375 0 3.617187.269531 7.167968.785156 10.636718-28.390625-1.539062-55.117188-12.445312-77.3125-29.1875l-31-30.941406c-3.710938-4.910156-11.363282-3.796875-13.566406 1.949219-6.84375 17.871093-14.699219 50.507812 6.175781 74.566406l-15.972657-6.402344c-3.109374-1.246093-6.300781 1.621094-5.378906 4.84375 3.015625 10.515625 10.023438 29.523438 23.859375 43.042969l12.433594 12.269531-3.972656.085938c-4.691407.101562-7.261719 5.542969-4.328125 9.203125 2.070312 2.578125 4.242187 5.0625 6.503906 7.449218l29.21875 29.15625c-19.292969 8.148438-40.65625 13.726563-63.417969 16.390626-6.675781.78125-8.828125 9.363281-3.34375 13.253906l163.578125 163.578125c138.394532-3.433594 249.527344-116.695313 249.527344-255.917969zm0 0" fill="#009ae5"/><path d="m423.890625 177.855469-20.175781 4.03125c17.292968-16.453125 13.230468-39.535157 13.230468-39.535157-19.8125 17.683594-36.859374 19.585938-41.558593 19.757813-11.347657-24.742187-36.324219-41.933594-65.328125-41.933594-39.679688 0-71.847656 32.167969-71.847656 71.847657 0 3.617187.269531 7.167968.785156 10.636718-43.410156-2.351562-82.941406-26.609375-108.3125-60.128906-3.710938-4.910156-11.363282-3.796875-13.566406 1.949219-6.84375 17.871093-14.699219 50.507812 6.175781 74.566406l-15.972657-6.402344c-3.109374-1.246093-6.300781 1.621094-5.378906 4.84375 4.144532 14.449219 15.808594 44.925781 42.386719 55.183594l-10.066406.214844c-4.691407.097656-7.261719 5.542969-4.328125 9.203125 11.523437 14.359375 26.121094 25.871094 42.589844 33.566406-21.039063 9.8125-44.789063 16.445312-70.285157 19.429688-6.675781.777343-8.828125 9.363281-3.34375 13.253906 32.339844 22.957031 82.351563 39.816406 120.820313 39.816406 92.121094 0 166.800781-74.679688 166.800781-166.804688 0-1.722656-.03125-3.441406-.085937-5.152343 23.851562-8.914063 37.460937-38.34375 37.460937-38.34375zm-102.148437 16.597656c-8.609376 0-15.589844-6.980469-15.589844-15.589844s6.980468-15.589843 15.589844-15.589843c8.613281 0 15.59375 6.980468 15.59375 15.589843-.003907 8.609375-6.984376 15.589844-15.59375 15.589844zm0 0" fill="#fefefe"/><path d="m423.890625 177.859375-20.179687 4.03125c17.300781-16.460937 13.230468-39.539063 13.230468-39.539063-19.8125 17.6875-36.863281 19.589844-41.550781 19.757813-11.351563-24.738281-36.332031-41.929687-65.332031-41.929687-23.257813 0-43.9375 11.050781-57.058594 28.191406v236.46875c76.179688-15.429688 133.519531-82.761719 133.519531-163.488282 0-1.722656-.039062-3.441406-.089843-5.152343 23.851562-8.910157 37.460937-38.339844 37.460937-38.339844zm-102.152344 16.589844c-8.609375 0-15.589843-6.980469-15.589843-15.589844s6.980468-15.589844 15.589843-15.589844c8.613281 0 15.589844 6.980469 15.589844 15.589844s-6.976563 15.589844-15.589844 15.589844zm0 0" fill="#fff5cb"/></svg>